<?xml version="1.0" encoding="utf-8"?>
<!-- Generator: Adobe Illustrator 16.0.0, SVG Export Plug-In . SVG Version: 6.00 Build 0)  -->
<svg version="1.2" baseProfile="tiny" id="Layer_1" xmlns="http://www.w3.org/2000/svg" xmlns:xlink="http://www.w3.org/1999/xlink"
	 x="0px" y="0px" width="800px" height="800px" viewBox="0 0 800 800" xml:space="preserve">
<g>
	<path fill="#96212B" d="M316.939,322.765c-2.415,0-4.09-1.635-4.16-4.072c-0.038-1.116,0.359-2.16,1.118-2.942
		c0.776-0.804,1.858-1.245,3.042-1.245c2.453,0,4.101,2.055,4.101,3.977C321.04,320.963,319.316,322.765,316.939,322.765"/>
	<path fill="#96212B" d="M308.928,369.711c-0.488-0.245-0.771-0.686-0.865-1.254c-0.041-0.251-0.123-1.105,0.436-1.669l0.121-0.121
		l0.257-0.104l1.657-0.201c2.841-0.337,3.01-0.358,3.01-6.979v-21.898c0-6.531-0.111-6.794-2.984-7.039l-1.765-0.138l-0.112-0.084
		c-0.474-0.32-0.688-0.865-0.646-1.538c0.019-0.264,0.127-1.148,0.803-1.487l0.115-0.056l0.205-0.033
		c3.045,0.12,5.149,0.186,7.806,0.186c2.576,0,4.735-0.067,7.595-0.183l0.123-0.005l0.199,0.05c0.543,0.267,0.846,0.826,0.894,1.533
		c0.044,0.673-0.171,1.218-0.594,1.496l-0.107,0.07l-0.199,0.061l-1.631,0.128c-2.866,0.245-2.979,0.508-2.979,7.039v21.898
		c0,6.621,0.169,6.641,3.012,6.979l1.812,0.257l0.094,0.063c0.416,0.278,0.631,0.821,0.592,1.489
		c-0.017,0.265-0.124,1.153-0.804,1.497l-0.116,0.057l-0.206,0.033l-0.088-0.003c-3.022-0.117-5.128-0.182-7.597-0.182
		c-2.568,0-4.694,0.065-7.718,0.182l-0.122,0.005L308.928,369.711z"/>
	<path fill="#96212B" d="M346.76,370.555c-5.331,0-8.782-1.67-10.021-2.389l-0.121-0.071l-0.15-0.172
		c-0.884-1.624-1.681-6.174-1.805-9.058l-0.006-0.169l0.094-0.255c0.465-0.655,1.186-0.852,1.681-0.852
		c0.548,0,0.991,0.209,1.245,0.59l0.08,0.156c1.175,3.98,3.8,8.637,9.802,8.637c4.733,0,6.852-3.132,6.852-6.238
		c0-2.546-0.564-5.266-4.659-7.901l-5.85-3.821c-3.205-2.114-7.023-5.787-7.023-11.28c0-6.83,5.38-11.42,13.388-11.42
		c2.109,0,4.452,0.428,5.939,0.827c0.737,0.226,1.526,0.34,1.935,0.34h0.583l0.203,0.547c0.549,1.467,1.16,5.032,1.16,7.799v0.148
		l-0.081,0.229c-0.411,0.613-1.15,0.846-1.726,0.846c-0.515,0-0.946-0.18-1.216-0.507l-0.029-0.035l-0.094-0.173
		c-0.888-3.238-2.448-6.437-7.595-6.437c-5.641,0-6.485,3.752-6.485,5.99c0,3.353,3.029,5.731,4.835,6.85l4.923,3.08
		c5.438,3.361,8.083,7.458,8.083,12.522C360.7,365.647,355.096,370.555,346.76,370.555"/>
	<path fill="#96212B" d="M379.925,369.711c-0.546-0.271-0.838-0.805-0.873-1.47c-0.034-0.683,0.234-1.271,0.717-1.571l0.049-0.032
		l0.209-0.069l2.331-0.208c2.697-0.237,3.044-0.269,3.044-6.852V332.01c0-0.485,0-0.987-0.063-1.094
		c-0.079-0.036-0.52-0.036-0.947-0.036h-3.381c-2.591,0-5.727,0.15-6.997,1.317c-1.381,1.262-1.956,2.57-2.565,3.955l-0.055,0.124
		l-0.148,0.171c-0.339,0.252-0.688,0.361-1.072,0.361c-0.785,0-1.544-0.428-1.847-1.04l-0.093-0.186l0.003-0.331
		c1.027-2.892,1.928-6.748,2.35-9.167l0.037-0.21l0.203-0.264c0.474-0.313,1.023-0.339,1.245-0.339c0.504,0,0.865,0.123,1.109,0.369
		l0.105,0.108l0.106,0.226c0.214,1.151,1.119,1.32,3.925,1.32h25.409c3.319,0,3.404-0.147,4.071-1.303l0.083-0.145l0.214-0.167
		c0.371-0.148,0.644-0.169,0.828-0.169c0.33,0,1.139,0.069,1.46,0.713l0.08,0.163l0.015,0.296c-0.685,2.552-1.106,7.437-0.935,9.179
		l0.013,0.142l-0.052,0.227c-0.307,0.614-0.917,0.939-1.642,0.939c-0.589,0-1.095-0.203-1.394-0.563l-0.099-0.116l-0.084-0.229
		c-0.306-2.55-0.842-3.738-1.211-4.008c-1.252-0.927-3.426-1.375-6.639-1.375h-4.369c-0.289,0-0.7,0-0.917,0.028
		c-0.028,0.215-0.028,0.633-0.028,0.983v27.616c0,6.601,0.166,6.615,2.925,6.852l2.261,0.257l0.098,0.066
		c0.419,0.28,0.635,0.824,0.591,1.493c-0.015,0.262-0.119,1.153-0.803,1.494l-0.114,0.056l-0.204,0.033l-0.085-0.003
		c-3.7-0.128-5.634-0.182-8.028-0.182c-2.527,0-4.772,0.067-8.525,0.182l-0.12,0.003L379.925,369.711z"/>
	<path fill="#96212B" d="M425.254,322.765c-2.415,0-4.091-1.635-4.161-4.072c-0.037-1.118,0.36-2.162,1.116-2.94
		c0.778-0.804,1.859-1.247,3.045-1.247c2.451,0,4.098,2.055,4.098,3.977C429.352,321.004,427.665,322.765,425.254,322.765"/>
	<path fill="#96212B" d="M417.208,369.709c-0.483-0.242-0.768-0.684-0.859-1.255c-0.039-0.245-0.129-1.097,0.434-1.666l0.122-0.121
		l0.258-0.104l1.656-0.201c2.842-0.337,3.012-0.358,3.012-6.979v-21.898c0-6.531-0.112-6.793-2.986-7.039l-1.766-0.138l-0.111-0.082
		c-0.472-0.316-0.688-0.861-0.646-1.535c0.049-0.708,0.35-1.267,0.809-1.492l0.114-0.056l0.202-0.033
		c3.044,0.12,5.148,0.186,7.808,0.186c2.572,0,4.734-0.067,7.594-0.183l0.124-0.005l0.199,0.05c0.765,0.383,0.872,1.267,0.889,1.53
		c0.022,0.313,0.011,1.095-0.59,1.499l-0.107,0.068l-0.201,0.063l-1.628,0.128c-2.867,0.246-2.979,0.508-2.979,7.039v21.898
		c0,6.621,0.169,6.642,3.011,6.979l1.81,0.257l0.095,0.063c0.419,0.28,0.635,0.824,0.59,1.493c-0.015,0.262-0.119,1.153-0.804,1.494
		l-0.112,0.056l-0.204,0.033l-0.09-0.003c-3.023-0.117-5.128-0.182-7.596-0.182c-2.57,0-4.696,0.065-7.718,0.182l-0.125,0.005
		L417.208,369.709z"/>
	<path fill="#96212B" d="M482.59,370.555l-0.251-0.35c-0.817-1.16-3.083-3.83-7.82-9.219l-14.271-16.242
		c-0.608-0.702-1.55-1.812-2.563-3.011c-1.199-1.42-2.514-2.972-3.483-4.082c-0.043,0.717-0.053,1.53-0.053,2.234v13.409
		c0,9.795,0.766,11.906,0.998,12.319c0.119,0.213,0.77,0.607,2.477,0.746l2.287,0.223l0.129,0.171
		c0.426,0.564,0.566,1.129,0.48,1.676c-0.072,0.49-0.318,0.906-0.696,1.169l-0.138,0.097l-0.264,0.064
		c-3.077-0.135-5.152-0.188-7.281-0.188c-2.605,0-4.243,0.064-6.349,0.183l-0.174,0.01l-0.266-0.097
		c-0.497-0.354-0.758-0.848-0.804-1.42c-0.047-0.565,0.13-1.109,0.477-1.46l0.122-0.121l0.259-0.104l1.781-0.201
		c1.678-0.219,1.983-0.625,2.036-0.742c0.742-1.908,0.729-8.814,0.726-11.764v-18.341c0-1.78-0.11-2.742-1.134-3.867
		c-0.581-0.577-1.759-1.013-3.297-1.205l-1.323-0.154l-0.119-0.117c-0.488-0.486-0.673-1.146-0.575-1.773
		c0.09-0.556,0.384-0.982,0.822-1.199l0.122-0.06l0.219-0.034c2.647,0.188,5.914,0.188,6.987,0.188c1.007,0,1.99-0.062,2.698-0.171
		l0.67-0.106l0.243,0.631c0.78,1.984,4.267,6.451,10.355,13.269l8.229,9.231c2.63,2.948,4.77,5.348,6.794,7.476
		c0.005-0.29,0.005-14.048,0.005-14.048c0-9.517-0.768-11.764-1.099-12.287c-0.143-0.214-0.824-0.547-3.212-0.845l-1.298-0.15
		l-0.115-0.105c-0.62-0.531-0.712-1.298-0.62-1.813c0.103-0.587,0.439-1.028,0.919-1.209l0.097-0.038l0.17-0.019
		c3.066,0.133,5.091,0.185,7.29,0.185c2.689,0,4.285-0.064,6.285-0.18l0.159-0.011l0.246,0.08c0.514,0.321,0.793,0.787,0.855,1.344
		c0.068,0.592-0.113,1.174-0.491,1.554l-0.117,0.121l-0.249,0.102l-0.971,0.138c-2.334,0.366-2.834,0.868-2.837,0.875
		c-0.837,1.785-0.822,8.496-0.817,11.361l0.003,15.599c0,7.529,0.1,9.958,0.182,10.668l0.013,0.109l-0.028,0.183
		c-0.278,0.84-1.032,1.319-1.986,1.319H482.59z"/>
	<path fill="#96212B" d="M509.113,369.711c-0.486-0.242-0.771-0.685-0.863-1.256c-0.04-0.246-0.131-1.098,0.432-1.667l0.127-0.125
		l0.265-0.104l2.033-0.197c2.765-0.286,2.932-0.305,2.932-6.979v-3.136c0-3.286-0.175-3.963-1.875-7.243l-7.26-14.151
		c-1.981-3.852-2.69-3.971-4.249-4.228l-2.028-0.366l-0.116-0.131c-0.442-0.515-0.597-1.133-0.492-1.744
		c0.095-0.525,0.365-0.937,0.758-1.164l0.129-0.073l0.239-0.042c2.093,0.131,4.278,0.188,7.183,0.188
		c2.835,0,5.028-0.062,6.519-0.181l0.113-0.01l0.178,0.035c0.51,0.171,0.872,0.585,1,1.13c0.153,0.658-0.026,1.387-0.447,1.813
		l-0.115,0.115l-0.242,0.104l-0.912,0.14c-1.197,0.17-1.666,0.325-1.841,0.403c0.191,0.702,1.314,3.281,1.79,4.24
		c0.604,1.203,1.204,2.428,1.81,3.662c1.454,2.957,2.917,5.935,4.404,8.668c2.038-3.512,3.645-6.415,5.022-9.083l0.323-0.602
		c0.954-1.77,3.073-5.706,3.507-6.886c-0.287-0.103-0.882-0.288-1.772-0.401l-1.387-0.15l-0.123-0.122
		c-0.506-0.505-0.695-1.129-0.597-1.75c0.091-0.554,0.401-0.998,0.849-1.221l0.125-0.061l0.214-0.03
		c2.361,0.134,4.113,0.188,5.943,0.188c1.826,0,3.521-0.053,5.67-0.183l0.154-0.008l0.239,0.072c0.559,0.344,0.857,0.867,0.9,1.458
		c0.044,0.586-0.171,1.144-0.576,1.489l-0.102,0.089l-0.202,0.087l-1.814,0.324c-2.445,0.419-4.155,3.402-6.52,7.531
		c-0.333,0.583-4.897,8.486-4.897,8.486c-2.676,4.618-2.779,4.975-2.779,9.545v3.197c0,6.761,0.501,6.799,2.912,6.977l2.646,0.208
		l0.129,0.125c0.658,0.661,0.571,1.514,0.533,1.761c-0.092,0.568-0.377,1.009-0.776,1.213l-0.114,0.057l-0.205,0.033l-0.087-0.003
		c-3.634-0.115-5.816-0.182-8.34-0.182c-2.596,0-4.82,0.065-8.022,0.182l-0.124,0.005L509.113,369.711z"/>
	<path fill="#96212B" d="M575.168,369.755c-5.544-0.12-11.085-0.182-16.47-0.182h-5.534c-2.604,0-4.635,0.057-8.339,0.182
		l-0.119,0.003l-0.196-0.047c-0.486-0.242-0.771-0.685-0.864-1.256c-0.042-0.248-0.133-1.1,0.436-1.667l0.127-0.125l0.264-0.104
		l2.152-0.197c2.708-0.239,3.055-0.271,3.055-6.854v-22.146c0-6.561-0.17-6.58-3.011-6.919l-1.261-0.197l-0.089-0.057
		c-0.421-0.279-0.639-0.823-0.593-1.497c0.046-0.708,0.35-1.267,0.807-1.492l0.113-0.056l0.205-0.033
		c2.891,0.135,4.916,0.186,7.313,0.186h11.563c3.326,0,7.462,0,8.103-0.159l0.733-0.18l0.258,0.711
		c0.344,0.976,0.632,3.984,0.952,7.523l0.107,1.168l-0.104,0.147c-0.422,0.625-1.148,0.812-1.662,0.812
		c-0.543,0-0.998-0.185-1.278-0.523l-0.029-0.036l-0.087-0.155l-0.158-0.459c-0.845-2.665-1.355-4.269-3.963-4.92
		c-1.201-0.286-3.098-0.344-5.761-0.344h-4.43c-0.388,0-0.824,0-0.914,0.061c-0.091,0.12-0.091,0.821-0.091,1.563v12.299
		c0,0.372,0,0.756,0.05,0.849c0.086,0.038,0.597,0.038,1.139,0.038h3.565c2.49,0,4.349-0.123,4.967-0.327
		c0.392-0.134,0.657-0.225,0.916-1.521l0.596-2.805l0.079-0.092c0.301-0.363,0.822-0.57,1.426-0.57c0.696,0,1.272,0.281,1.543,0.752
		l0.065,0.115l0.047,0.212c0,0.751-0.047,1.57-0.102,2.517c-0.072,1.196-0.146,2.507-0.146,3.787c0,1.224,0.075,2.485,0.145,3.598
		c0.056,0.945,0.103,1.708,0.103,2.309v0.129l-0.064,0.204c-0.319,0.555-0.895,0.835-1.587,0.835c-0.606,0-1.129-0.208-1.43-0.57
		l-0.038-0.042l-0.097-0.193l-0.596-2.512c-0.24-1.088-0.579-1.536-1.291-1.714c-0.83-0.233-2.411-0.281-4.536-0.281h-3.565
		c-0.544,0-1.061,0-1.176,0.064c-0.013,0.056-0.013,0.413-0.013,0.759v8.673c0,2.978,0.155,4.993,0.939,5.824
		c0.589,0.592,1.837,1.149,6.83,1.149c4.414,0,6.234-0.202,7.501-0.832c0.815-0.454,2.378-2.368,3.991-5.592l0.026-0.048l0.138-0.17
		c0.377-0.292,0.728-0.395,1.108-0.395c0.649,0,1.454,0.333,1.783,1.074l0.059,0.138l0.019,0.249
		c-0.462,2.323-2.025,7.146-2.858,8.87l-0.228,0.488L575.168,369.755z"/>
	<path fill="#96212B" d="M398.744,440.125l-0.279-0.398c-0.813-1.159-3.063-3.811-7.763-9.155l-14.19-16.151
		c-0.62-0.705-1.586-1.848-2.627-3.078l-0.361-0.428c-0.995-1.174-2.032-2.4-2.857-3.348c-0.034,0.674-0.039,1.392-0.039,1.959
		v13.332c0,9.712,0.752,11.789,0.983,12.198c0.077,0.141,0.667,0.555,2.374,0.684l2.333,0.231l0.249,0.335
		c0.345,0.462,0.49,1.061,0.398,1.632c-0.084,0.514-0.347,0.946-0.742,1.221l-0.135,0.093l-0.288,0.084
		c-2.341-0.1-4.715-0.189-7.266-0.189c-2.465,0-4.12,0.063-6.313,0.183l-0.175,0.01l-0.3-0.09c-0.554-0.408-0.826-0.931-0.872-1.527
		c-0.046-0.6,0.141-1.156,0.521-1.525l0.121-0.12l0.276-0.123l1.802-0.203c1.653-0.223,1.91-0.61,1.944-0.684
		c0.728-1.874,0.713-8.979,0.709-11.647V405.18c0-1.742-0.108-2.684-1.099-3.766c-0.556-0.56-1.703-0.983-3.218-1.18l-1.346-0.15
		l-0.12-0.114c-0.541-0.543-0.733-1.218-0.628-1.881c0.092-0.576,0.411-1.04,0.875-1.273l0.125-0.061l0.246-0.044
		c2.65,0.192,5.896,0.192,6.962,0.192c1.041,0,1.985-0.061,2.655-0.171l0.744-0.12l0.281,0.697
		c0.531,1.358,2.744,4.739,10.276,13.163l8.719,9.785c2.334,2.605,4.24,4.739,6.049,6.645c0.001-0.209,0.001-13.704,0.001-13.704
		c0-9.692-0.829-11.763-1.085-12.168c-0.063-0.1-0.492-0.466-3.112-0.794l-1.319-0.15l-0.112-0.097
		c-0.588-0.506-0.808-1.212-0.678-1.928c0.116-0.624,0.473-1.087,0.983-1.278l0.097-0.036l0.189-0.031
		c2.901,0.137,4.979,0.189,7.262,0.189c2.719,0,4.291-0.064,6.242-0.184l0.164-0.01l0.281,0.081c0.56,0.357,0.852,0.852,0.914,1.428
		c0.074,0.617-0.115,1.228-0.511,1.627l-0.119,0.122l-0.274,0.13l-1.007,0.138c-2.233,0.348-2.742,0.833-2.747,0.836
		c-0.818,1.748-0.794,8.443-0.786,11.3v15.44c0,7.487,0.096,9.896,0.176,10.595l0.013,0.104l-0.017,0.199
		c-0.307,0.915-1.094,1.416-2.088,1.416H398.744z"/>
	<path fill="#96212B" d="M430.202,439.328c-3.347-0.125-5.231-0.183-7.548-0.183c-2.404,0-4.313,0.058-7.675,0.183l-0.125,0.007
		l-0.227-0.051c-0.539-0.277-0.839-0.749-0.93-1.356c-0.086-0.524-0.007-1.259,0.474-1.732l0.12-0.117l0.274-0.129l1.673-0.202
		c2.8-0.332,2.909-0.346,2.909-6.836v-21.778c0-6.65-0.217-6.67-2.868-6.892l-1.866-0.204l-0.101-0.063
		c-0.448-0.295-0.682-0.866-0.642-1.565c0.018-0.279,0.127-1.222,0.851-1.59l0.115-0.06l0.235-0.044
		c3.304,0.139,5.311,0.188,7.781,0.188c2.276,0,4.321-0.049,7.545-0.182l0.128-0.005l0.229,0.051
		c0.797,0.401,0.931,1.262,0.956,1.617c0.05,0.706-0.178,1.283-0.625,1.582l-0.105,0.07l-0.229,0.078l-1.644,0.128
		c-2.647,0.222-2.867,0.241-2.867,6.892v21.778c0,6.49,0.109,6.504,2.902,6.836l1.845,0.27l0.094,0.065
		c0.443,0.297,0.672,0.865,0.631,1.567c-0.013,0.273-0.114,1.21-0.855,1.583l-0.115,0.057l-0.229,0.046L430.202,439.328z"/>
	<path fill="#96212B" d="M422.654,392.445c-2.463,0-4.167-1.666-4.241-4.149c-0.038-1.126,0.362-2.189,1.136-2.991
		c0.792-0.823,1.895-1.274,3.105-1.274c2.5,0,4.179,2.094,4.179,4.052C426.833,390.609,425.075,392.445,422.654,392.445"/>
	<path fill="#96212B" d="M460.338,440.125c-0.421,0-0.844-0.083-1.26-0.247l-0.442-0.176l-0.118-0.464
		c-0.569-2.157-1.528-4.929-2.776-8.014l-10.771-26.547c-1.398-3.415-2.142-4.204-4.188-4.444l-1.385-0.144l-0.119-0.107
		c-0.521-0.439-0.749-1.023-0.711-1.639c0.05-0.63,0.367-1.184,0.852-1.485l0.138-0.083l0.281-0.068
		c1.88,0.138,3.82,0.194,6.438,0.194c2.656,0,4.786-0.052,7.35-0.184l0.141-0.006l0.25,0.062c0.588,0.327,0.909,0.871,0.98,1.513
		c0.061,0.65-0.158,1.249-0.587,1.612l-0.11,0.096l-0.249,0.105l-1.053,0.133c-1.225,0.162-1.756,0.327-1.978,0.421
		c0.319,1.14,1.344,4.177,2.911,8.023c2.468,6.218,5.095,12.792,7.837,19.155c1.133-2.537,2.406-5.549,3.369-7.822
		c0.618-1.469,1.179-2.801,1.625-3.827c1.71-4.017,4.622-11.015,5.673-13.672c0.353-0.925,0.45-1.466,0.476-1.828
		c-0.187-0.103-0.695-0.308-1.908-0.451l-1.383-0.144l-0.118-0.101c-0.534-0.46-0.752-1.059-0.69-1.696
		c0.06-0.637,0.376-1.179,0.842-1.448l0.134-0.078l0.274-0.059c1.716,0.128,3.95,0.192,6.429,0.192c2.079,0,3.943-0.057,5.864-0.184
		l0.14-0.008l0.257,0.059c0.56,0.316,0.843,0.777,0.925,1.37c0.068,0.532-0.019,1.257-0.463,1.711l-0.264,0.253l-2.175,0.138
		c-1.056,0.092-1.745,0.571-2.45,1.702c-1.597,2.687-3.883,7.385-6.788,13.952l-3.304,7.524c-2.352,5.412-5.28,12.602-6.319,15.871
		l-0.056,0.175l-0.203,0.245C461.208,440.003,460.781,440.125,460.338,440.125"/>
	<path fill="#96212B" d="M324.73,392.568c-2.463,0-3.934-1.518-3.934-4.057c-0.115-1.069,0.267-2.241,1.025-3.082
		c0.75-0.827,1.783-1.281,2.909-1.281c2.505,0,4.057,2.201,4.057,4.241C328.787,390.811,327.081,392.568,324.73,392.568"/>
	<path fill="#96212B" d="M338.441,392.568c-2.43,0-4.045-1.583-4.113-4.032c0-2.165,1.538-4.388,4.113-4.388
		c2.427,0,3.877,2.155,3.877,4.241C342.318,390.851,340.724,392.568,338.441,392.568"/>
	<path fill="#96212B" d="M330.603,440.125c-5.213,0-9.268-1.208-12.052-3.587c-3.476-2.887-5.098-7.704-5.098-15.146v-14.436
		c0-6.533-0.214-6.549-2.807-6.772l-1.77-0.144l-0.11-0.072c-0.537-0.355-0.771-0.919-0.729-1.603
		c0.017-0.269,0.128-1.179,0.859-1.549l0.115-0.058l0.232-0.046c3.338,0.14,5.382,0.189,7.66,0.189c2.405,0,4.362-0.047,7.481-0.184
		l0.13-0.005l0.229,0.051c0.831,0.426,0.941,1.334,0.957,1.603c0.042,0.676-0.185,1.235-0.623,1.535l-0.106,0.074l-0.229,0.075
		l-1.585,0.134c-2.596,0.224-2.809,0.24-2.809,6.772v13.211c0,10.498,3.646,15.389,11.477,15.389c9.332,0,11.292-8.34,11.292-15.333
		v-7.027c0-9.373-0.726-11.654-1.038-12.2c-0.183-0.316-0.894-0.696-2.321-0.812l-1.918-0.155l-0.25-0.304
		c-0.346-0.397-0.501-0.976-0.421-1.578c0.083-0.553,0.355-1.014,0.747-1.275l0.134-0.088l0.281-0.072
		c2.405,0.13,4.667,0.189,7.072,0.189c2.42,0,4.029-0.046,6.372-0.184l0.165-0.008l0.277,0.079c0.521,0.326,0.796,0.755,0.88,1.278
		c0.096,0.593-0.069,1.228-0.428,1.661l-0.248,0.303l-1.861,0.155c-1.268,0.102-2.11,0.539-2.284,0.919
		c-0.773,1.824-0.773,9.285-0.773,12.093v6.905c0,7.002-1.483,11.992-4.531,15.259C340.278,438.301,335.538,440.125,330.603,440.125
		"/>
	<path fill="#96212B" d="M715.766,439.328c-5.846-0.121-11.199-0.183-16.366-0.183h-5.506c-2.549,0-4.554,0.063-7.874,0.17
		l-0.539,0.016l-0.225-0.047c-0.532-0.268-0.834-0.738-0.929-1.342c-0.092-0.526-0.02-1.265,0.458-1.743l0.249-0.241l2.348-0.217
		c2.606-0.228,2.94-0.256,2.94-6.708v-22.021c0-6.425-0.164-6.445-2.902-6.779l-1.308-0.209l-0.093-0.061
		c-0.435-0.299-0.662-0.87-0.623-1.564c0.033-0.447,0.188-1.241,0.853-1.581l0.115-0.06l0.233-0.044
		c2.745,0.134,4.825,0.188,7.296,0.188h11.497c3.3,0,7.402,0,8.03-0.155l0.826-0.213l0.284,0.813
		c0.348,0.979,0.629,3.884,0.956,7.576l0.099,1.122l-0.1,0.145c-0.453,0.688-1.188,0.889-1.755,0.889
		c-0.572,0-1.054-0.198-1.354-0.558l-0.031-0.04l-0.106-0.198l-0.148-0.441c-0.83-2.613-1.333-4.188-3.871-4.831
		c-1.26-0.292-3.487-0.334-5.709-0.334h-4.404c-0.343,0-0.732,0-0.818,0.055c-0.072,0.111-0.072,0.765-0.072,1.456v12.229
		c0,0.333,0,0.675,0.042,0.762c0.07,0.016,0.54,0.016,1.038,0.016h3.548c2.451,0,4.284-0.119,4.906-0.324
		c0.352-0.115,0.588-0.196,0.835-1.433l0.609-2.835l0.08-0.094c0.321-0.379,0.88-0.603,1.497-0.603c0.738,0,1.349,0.306,1.635,0.813
		l0.063,0.111l0.056,0.233c0,0.779-0.046,1.624-0.102,2.571c-0.069,1.204-0.143,2.475-0.143,3.723c0,1.193,0.075,2.428,0.14,3.52
		c0.059,0.942,0.104,1.745,0.104,2.35v0.129l-0.061,0.229c-0.344,0.609-0.952,0.908-1.683,0.908c-0.641,0-1.193-0.225-1.512-0.617
		l-0.151-0.272l-0.586-2.493c-0.233-1.031-0.549-1.456-1.212-1.625c-0.816-0.229-2.377-0.275-4.477-0.275h-3.548
		c-0.503,0-0.979,0-1.086,0.056c0.006,0.035,0.006,0.364,0.006,0.655v8.628c0,2.94,0.151,4.922,0.901,5.712
		c0.55,0.549,1.784,1.118,6.723,1.118c4.362,0,6.162-0.201,7.41-0.822c0.589-0.323,2.099-1.864,3.918-5.511l0.202-0.26
		c0.396-0.295,0.763-0.405,1.159-0.405c0.678,0,1.52,0.348,1.864,1.124l0.067,0.146l0.025,0.295
		c-0.472,2.339-2.034,7.152-2.859,8.858l-0.261,0.539L715.766,439.328z"/>
	<path fill="#96212B" d="M739.649,440.125c-5.102,0-8.46-1.497-10.007-2.39l-0.125-0.071l-0.179-0.187
		c-0.902-1.664-1.69-6.127-1.822-9.074l-0.007-0.163l0.086-0.289c0.516-0.721,1.265-0.928,1.777-0.928
		c0.576,0,1.063,0.234,1.335,0.639l0.028,0.038l0.066,0.164c1.155,3.897,3.748,8.485,9.643,8.485c4.63,0,6.704-3.059,6.704-6.092
		c0-2.504-0.554-5.177-4.582-7.771l-5.817-3.8c-3.208-2.121-7.028-5.8-7.028-11.304c0-6.854,5.39-11.457,13.413-11.457
		c2.113,0,4.45,0.425,5.933,0.824c0.75,0.232,1.506,0.336,1.897,0.336h0.658l0.224,0.613c0.562,1.504,1.161,4.992,1.161,7.786v0.154
		l-0.086,0.264c-0.45,0.657-1.22,0.902-1.818,0.902c-0.54,0-0.995-0.188-1.286-0.531l-0.149-0.26
		c-0.872-3.176-2.406-6.32-7.452-6.32c-5.242,0-6.341,3.183-6.341,5.853c0,3.277,2.982,5.621,4.76,6.727l4.891,3.058
		c5.44,3.364,8.088,7.47,8.088,12.544C753.613,435.203,748.002,440.125,739.649,440.125"/>
	<path fill="#96212B" d="M771.857,392.445c-2.467,0-4.172-1.67-4.24-4.155c-0.039-1.122,0.364-2.183,1.135-2.984
		c0.793-0.823,1.895-1.274,3.105-1.274c2.502,0,4.179,2.094,4.179,4.052C776.036,390.609,774.279,392.445,771.857,392.445"/>
	<path fill="#96212B" d="M779.406,439.328c-3.143-0.119-5.176-0.183-7.549-0.183c-2.42,0-4.322,0.058-7.674,0.183l-0.125,0.007
		l-0.228-0.051c-0.535-0.277-0.833-0.748-0.928-1.347c-0.042-0.258-0.13-1.142,0.455-1.736l0.122-0.123l0.282-0.129l1.682-0.202
		c2.802-0.332,2.908-0.346,2.908-6.836v-21.778c0-6.65-0.217-6.67-2.869-6.892l-1.775-0.138l-0.107-0.074
		c-0.533-0.352-0.765-0.921-0.725-1.62c0.045-0.749,0.364-1.342,0.853-1.59l0.115-0.06l0.232-0.044
		c3.299,0.139,5.305,0.188,7.781,0.188c2.278,0,4.322-0.049,7.545-0.182l0.129-0.005l0.23,0.051
		c0.772,0.393,0.925,1.187,0.958,1.626c0.04,0.702-0.188,1.272-0.625,1.571l-0.107,0.072l-0.23,0.078l-1.647,0.128
		c-2.65,0.222-2.868,0.241-2.868,6.892v21.778c0,6.49,0.107,6.504,2.903,6.836l1.849,0.27l0.092,0.063
		c0.445,0.295,0.675,0.864,0.635,1.559c-0.045,0.748-0.364,1.343-0.854,1.592l-0.115,0.059l-0.231,0.046L779.406,439.328z"/>
	<path fill="#96212B" d="M648.048,439.284c-0.827-0.415-0.927-1.301-0.941-1.563c-0.033-0.713,0.251-1.333,0.763-1.654l0.306-0.115
		l2.314-0.211c2.601-0.228,2.935-0.256,2.935-6.708v-27.334c0-0.444,0-0.902-0.055-1.005c-0.063-0.02-0.463-0.02-0.848-0.02h-3.363
		c-2.558,0-5.651,0.148-6.889,1.282c-1.363,1.25-1.925,2.539-2.52,3.905l-0.21,0.291c-0.381,0.3-0.745,0.414-1.149,0.414
		c-0.814,0-1.609-0.443-1.938-1.079l-0.187-0.369l0.142-0.381c0.963-2.691,1.859-6.53,2.286-8.954l0.075-0.404l0.337-0.218
		c0.362-0.245,0.935-0.273,1.166-0.273c0.52,0,0.903,0.127,1.17,0.385l0.113,0.109l0.125,0.251c0.197,1.057,0.904,1.267,3.81,1.267
		h25.261c3.235,0,3.303-0.119,3.958-1.245l0.086-0.148l0.237-0.201c0.348-0.14,0.596-0.182,0.876-0.182
		c0.349,0,1.195,0.073,1.551,0.75l0.165,0.33l-0.097,0.35c-0.646,2.413-1.063,7.246-0.888,8.959l0.012,0.142l-0.051,0.257
		c-0.323,0.668-0.973,1.019-1.739,1.019c-0.604,0-1.153-0.222-1.466-0.595l-0.094-0.112l-0.101-0.251
		c-0.329-2.705-0.888-3.744-1.169-3.951c-1.225-0.906-3.365-1.347-6.542-1.347h-4.34c-0.208,0-0.581,0-0.815,0.022
		c-0.019,0.238-0.019,0.631-0.019,0.916v27.42c0,6.469,0.157,6.483,2.806,6.708l2.287,0.273l0.097,0.06
		c0.454,0.29,0.692,0.857,0.651,1.555c-0.034,0.742-0.353,1.347-0.852,1.6l-0.116,0.061l-0.233,0.046l-0.111-0.007
		c-3.469-0.115-5.554-0.183-7.978-0.183c-2.382,0-4.42,0.062-8.117,0.174l-0.589,0.019L648.048,439.284z"/>
	<path fill="#96212B" d="M518.304,439.328c-5.849-0.121-11.202-0.183-16.372-0.183h-5.5c-2.558,0-4.558,0.063-7.869,0.17
		l-0.549,0.02l-0.229-0.059c-0.521-0.257-0.82-0.709-0.925-1.317c-0.044-0.263-0.134-1.156,0.461-1.759l0.251-0.242l2.347-0.217
		c2.605-0.228,2.941-0.256,2.941-6.708v-22.021c0-6.425-0.164-6.445-2.903-6.779l-1.306-0.208l-0.089-0.061
		c-0.448-0.299-0.674-0.876-0.628-1.581c0.027-0.356,0.163-1.217,0.854-1.565l0.117-0.06l0.229-0.044
		c2.746,0.134,4.826,0.188,7.297,0.188h11.497c3.298,0,7.402,0,8.028-0.155l0.826-0.215l0.285,0.815
		c0.34,0.967,0.625,3.888,0.933,7.32l0.129,1.378l-0.102,0.147c-0.468,0.688-1.202,0.886-1.766,0.886
		c-0.572,0-1.052-0.198-1.353-0.558l-0.031-0.04l-0.106-0.198l-0.147-0.429c-0.826-2.62-1.324-4.201-3.867-4.844
		c-1.262-0.292-3.488-0.334-5.71-0.334h-4.398c-0.348,0-0.741,0-0.826,0.055c-0.074,0.112-0.074,0.765-0.074,1.456v12.229
		c0,0.333,0,0.675,0.04,0.762c0.07,0.016,0.542,0.016,1.04,0.016h3.552c2.45,0,4.283-0.119,4.905-0.324
		c0.352-0.115,0.587-0.196,0.838-1.433l0.607-2.835l0.08-0.094c0.321-0.379,0.881-0.603,1.498-0.603c0.729,0,1.341,0.302,1.632,0.81
		l0.063,0.115l0.058,0.233c0,0.779-0.048,1.628-0.104,2.571c-0.068,1.204-0.143,2.475-0.143,3.723c0,1.193,0.075,2.431,0.14,3.52
		c0.059,0.942,0.106,1.745,0.106,2.35v0.129L514,423.582c-0.346,0.609-0.951,0.908-1.682,0.908c-0.641,0-1.192-0.225-1.512-0.617
		l-0.15-0.272l-0.586-2.493c-0.233-1.031-0.551-1.456-1.212-1.625c-0.821-0.229-2.382-0.275-4.478-0.275h-3.552
		c-0.503,0-0.979,0-1.086,0.056c0.006,0.035,0.006,0.364,0.006,0.655v8.628c0,2.938,0.151,4.919,0.906,5.712
		c0.55,0.549,1.783,1.118,6.722,1.118c4.361,0,6.163-0.201,7.411-0.822c0.585-0.321,2.092-1.856,3.917-5.511l0.202-0.26
		c0.396-0.295,0.764-0.405,1.159-0.405c0.676,0,1.514,0.344,1.865,1.122l0.064,0.147l0.029,0.286
		c-0.474,2.349-2.035,7.162-2.861,8.868l-0.26,0.539L518.304,439.328z"/>
	<path fill="#96212B" d="M567.744,439.819c-5.854,0-9.116-1.968-13.426-8.1c-0.828-1.173-1.9-2.876-2.935-4.521
		c-1.048-1.66-2.135-3.378-3.065-4.73c-0.747-1.092-1.408-1.547-3.571-1.547c-1.011,0-1.811,0-1.969,0.089h0.002
		c0.03,0,0.03,0.173,0.03,0.314v7.708c0,6.32,0.108,6.334,2.859,6.714l1.555,0.224l0.107,0.09c0.516,0.436,0.718,1.061,0.636,1.753
		c-0.088,0.688-0.388,1.187-0.845,1.419l-0.115,0.054l-0.23,0.049c-2.808-0.122-4.854-0.189-7.354-0.189
		c-2.565,0-4.81,0.071-7.601,0.183l-0.134,0.007l-0.232-0.059c-0.509-0.251-0.804-0.674-0.915-1.23
		c-0.102-0.52-0.053-1.268,0.407-1.796l0.125-0.145l0.301-0.151l1.697-0.207c2.74-0.332,2.849-0.343,2.849-6.714v-21.955
		c0-5.998-0.289-6.033-1.871-6.231l-2.295-0.335l-0.1-0.071c-0.475-0.345-0.746-1.012-0.691-1.694
		c0.057-0.654,0.386-1.189,0.884-1.439l0.243-0.079c3.894-0.353,8.254-0.509,13.817-0.509c3.499,0,7.505,0.23,10.666,1.953
		c2.531,1.313,5.563,4.011,5.563,9.382c0,6.691-5.439,9.837-7.677,10.846c0.044,0.087,0.106,0.2,0.196,0.344
		c4.613,7.432,7.946,12.56,12.101,16.047c0.971,0.849,2.311,1.391,3.683,1.488l0.208,0.043c0.519,0.197,0.838,0.614,0.91,1.112
		c0.076,0.521-0.13,1.051-0.538,1.376l-0.207,0.12C570.065,439.691,569.003,439.819,567.744,439.819 M542.83,417.099
		c0.42,0.05,1.354,0.11,3.443,0.11c1.807,0,4.096-0.16,5.742-1.402c1.799-1.405,2.678-3.642,2.678-6.832
		c0-3.914-2.317-8.482-8.848-8.482c-3.035,0-3.035,0-3.035,1.018v14.314C542.811,416.217,542.811,416.756,542.83,417.099"/>
	<path fill="#96212B" d="M619.8,392.445c-2.465,0-4.171-1.666-4.244-4.149c-0.042-1.126,0.362-2.188,1.131-2.991
		c0.796-0.823,1.899-1.274,3.113-1.274c2.498,0,4.174,2.094,4.174,4.052C623.974,390.609,622.22,392.445,619.8,392.445"/>
	<path fill="#96212B" d="M627.35,439.328c-3.357-0.125-5.245-0.183-7.547-0.183c-2.424,0-4.324,0.058-7.676,0.183l-0.125,0.007
		l-0.226-0.051c-0.532-0.268-0.836-0.736-0.933-1.341c-0.09-0.527-0.018-1.266,0.461-1.744l0.123-0.121l0.281-0.129l1.677-0.202
		c2.796-0.332,2.904-0.346,2.904-6.836v-21.778c0-6.65-0.216-6.67-2.865-6.892l-1.773-0.138l-0.109-0.074
		c-0.538-0.355-0.771-0.928-0.729-1.63c0.021-0.285,0.14-1.222,0.858-1.583l0.115-0.057l0.231-0.044
		c3.298,0.139,5.305,0.188,7.784,0.188c2.271,0,4.316-0.049,7.543-0.182l0.129-0.005l0.229,0.051
		c0.829,0.424,0.938,1.356,0.956,1.633c0.041,0.701-0.192,1.273-0.638,1.568l-0.313,0.129l-1.66,0.145
		c-2.647,0.222-2.865,0.241-2.865,6.892v21.778c0,6.49,0.108,6.504,2.901,6.836l1.846,0.27l0.095,0.065
		c0.438,0.293,0.667,0.859,0.635,1.551c-0.045,0.754-0.362,1.349-0.854,1.598l-0.113,0.059l-0.232,0.046L627.35,439.328z"/>
	<path fill="#96212B" d="M587.075,440.125c-5.079,0-8.452-1.494-10.009-2.384l-0.123-0.067l-0.181-0.189
		c-0.903-1.678-1.696-6.219-1.819-9.081l-0.008-0.165l0.089-0.287c0.513-0.721,1.261-0.928,1.774-0.928
		c0.575,0,1.063,0.234,1.334,0.639l0.025,0.037l0.067,0.158c1.158,3.904,3.75,8.492,9.645,8.492c4.631,0,6.704-3.059,6.704-6.092
		c0-2.504-0.554-5.177-4.58-7.771l-5.819-3.8c-3.208-2.121-7.027-5.8-7.027-11.304c0-6.854,5.39-11.457,13.414-11.457
		c2.111,0,4.448,0.425,5.931,0.824c0.719,0.221,1.496,0.336,1.898,0.336h0.656l0.225,0.613c0.563,1.504,1.161,4.992,1.161,7.786
		v0.154l-0.086,0.264c-0.449,0.657-1.22,0.902-1.817,0.902c-0.538,0-0.995-0.188-1.285-0.531l-0.147-0.26
		c-0.874-3.176-2.407-6.32-7.454-6.32c-5.241,0-6.34,3.183-6.34,5.853c0,3.274,2.982,5.621,4.757,6.727l4.892,3.058
		c5.439,3.36,8.083,7.464,8.083,12.544C601.034,435.203,595.425,440.125,587.075,440.125"/>
	<path fill="#0E1318" d="M310.744,469.628c0-3.21-0.06-3.721-1.845-3.875l-0.756-0.06c-0.183-0.121-0.123-0.663,0.059-0.759
		c1.511,0.062,2.542,0.096,3.815,0.096c1.209,0,2.241-0.034,3.756-0.096c0.182,0.096,0.24,0.638,0.06,0.759l-0.757,0.06
		c-1.79,0.154-1.849,0.665-1.849,3.875v10.78c0,3.206,0.059,3.634,1.849,3.845l0.757,0.093c0.181,0.12,0.122,0.665-0.06,0.756
		c-1.515-0.061-2.546-0.091-3.756-0.091c-1.272,0-2.304,0.03-3.815,0.091c-0.181-0.091-0.242-0.575-0.059-0.756l0.756-0.093
		c1.785-0.211,1.845-0.639,1.845-3.845V469.628z M310.381,461.998c-0.033-0.906,0.665-1.634,1.635-1.634
		c0.939,0,1.605,0.789,1.605,1.546c0,0.999-0.666,1.69-1.605,1.69C311.079,463.601,310.41,463.029,310.381,461.998"/>
	<path fill="#0E1318" d="M371.152,485.494c-2.541,0-4.146-0.785-4.721-1.122c-0.362-0.665-0.757-2.814-0.818-4.236
		c0.153-0.215,0.603-0.274,0.73-0.092c0.449,1.546,1.691,4.509,5.203,4.509c2.547,0,3.787-1.661,3.787-3.478
		c0-1.336-0.273-2.817-2.485-4.238l-2.876-1.878c-1.51-0.999-3.267-2.729-3.267-5.208c0-2.877,2.239-5.21,6.176-5.21
		c0.938,0,2.025,0.188,2.814,0.396c0.397,0.119,0.82,0.181,1.062,0.181c0.273,0.729,0.543,2.422,0.543,3.694
		c-0.121,0.181-0.604,0.273-0.757,0.094c-0.392-1.455-1.209-3.426-4.118-3.426c-2.964,0-3.601,1.971-3.601,3.364
		c0,1.756,1.455,3.024,2.575,3.722l2.419,1.517c1.905,1.178,3.784,2.936,3.784,5.812
		C377.604,483.227,375.093,485.494,371.152,485.494"/>
	<path fill="#0E1318" d="M437.589,480.469c0,3.18,0.062,3.635,1.815,3.784l0.967,0.093c0.182,0.12,0.121,0.665-0.061,0.756
		c-1.725-0.061-2.755-0.091-3.962-0.091c-1.213,0-2.273,0.03-4.211,0.091c-0.18-0.091-0.241-0.606,0-0.756l1.088-0.093
		c1.727-0.149,1.876-0.604,1.876-3.784v-13.535c0-0.939,0-0.968-0.906-0.968h-1.662c-1.307,0-2.969,0.062-3.728,0.759
		c-0.725,0.665-1.026,1.328-1.36,2.087c-0.242,0.181-0.666,0.032-0.787-0.208c0.483-1.369,0.939-3.304,1.148-4.515
		c0.094-0.061,0.483-0.091,0.575,0c0.183,0.969,1.183,0.941,2.575,0.941h12.263c1.632,0,1.907-0.062,2.36-0.853
		c0.149-0.06,0.483-0.028,0.545,0.094c-0.335,1.241-0.545,3.693-0.455,4.601c-0.121,0.241-0.633,0.241-0.785,0.058
		c-0.094-0.755-0.303-1.875-0.759-2.205c-0.696-0.516-1.845-0.759-3.513-0.759h-2.146c-0.912,0-0.879,0.028-0.879,1.029V480.469z"/>
	<path fill="#0E1318" d="M504.056,477.983c-0.213-0.665-0.335-0.757-1.239-0.757h-4.574c-0.756,0-0.936,0.092-1.15,0.729
		l-1.06,3.178c-0.455,1.362-0.663,2.179-0.663,2.516c0,0.362,0.146,0.543,0.877,0.604l0.999,0.089
		c0.208,0.152,0.208,0.634-0.062,0.759c-0.788-0.059-1.728-0.059-3.15-0.093c-0.999,0-2.085,0.061-2.903,0.093
		c-0.183-0.125-0.242-0.606-0.061-0.759l0.997-0.089c0.727-0.062,1.392-0.396,1.819-1.485c0.543-1.394,1.388-3.359,2.662-6.752
		l3.091-8.172c0.422-1.092,0.604-1.668,0.509-2.152c0.731-0.213,1.24-0.756,1.577-1.151c0.181,0,0.394,0.059,0.455,0.274
		c0.396,1.333,0.878,2.724,1.332,4.056l4.146,12.17c0.879,2.608,1.273,3.063,2.573,3.213l0.818,0.089
		c0.213,0.152,0.154,0.634,0,0.759c-1.24-0.059-2.3-0.093-3.661-0.093c-1.454,0-2.607,0.061-3.484,0.093
		c-0.241-0.125-0.271-0.606-0.062-0.759l0.879-0.089c0.636-0.062,1.059-0.242,1.059-0.547c0-0.334-0.149-0.877-0.39-1.605
		L504.056,477.983z M498.063,475.289c-0.242,0.697-0.213,0.728,0.636,0.728h3.724c0.877,0,0.937-0.119,0.663-0.937l-1.631-4.935
		c-0.246-0.729-0.516-1.545-0.697-1.913h-0.06c-0.093,0.155-0.396,0.881-0.729,1.791L498.063,475.289z"/>
	<path fill="#0E1318" d="M578.025,479.861c0,0.911,0,4.511,0.093,5.303c-0.062,0.18-0.242,0.329-0.576,0.329
		c-0.363-0.517-1.24-1.574-3.875-4.572l-7.022-7.993c-0.818-0.938-2.876-3.419-3.514-4.084h-0.061
		c-0.12,0.362-0.153,1.06-0.153,1.966v6.602c0,1.423,0.033,5.357,0.545,6.265c0.181,0.334,0.79,0.517,1.547,0.577l0.939,0.093
		c0.18,0.242,0.148,0.604-0.061,0.756c-1.365-0.061-2.426-0.091-3.545-0.091c-1.27,0-2.088,0.03-3.146,0.091
		c-0.214-0.151-0.243-0.575-0.061-0.756l0.816-0.093c0.692-0.09,1.181-0.274,1.33-0.604c0.423-1.093,0.395-4.786,0.395-6.237v-8.747
		c0-0.851-0.031-1.488-0.664-2.186c-0.428-0.423-1.153-0.632-1.877-0.726l-0.517-0.06c-0.181-0.181-0.181-0.638,0.06-0.759
		c1.273,0.096,2.878,0.096,3.421,0.096c0.482,0,0.999-0.034,1.395-0.096c0.604,1.544,4.178,5.54,5.176,6.664l2.937,3.299
		c2.092,2.329,3.573,4.024,4.997,5.481h0.059c0.123-0.15,0.123-0.638,0.123-1.275v-6.479c0-1.42-0.028-5.357-0.604-6.268
		c-0.183-0.269-0.665-0.45-1.879-0.604l-0.515-0.06c-0.209-0.181-0.182-0.663,0.061-0.759c1.394,0.062,2.425,0.096,3.573,0.096
		c1.302,0,2.09-0.034,3.116-0.096c0.243,0.153,0.243,0.578,0.062,0.759l-0.422,0.06c-0.968,0.154-1.577,0.396-1.697,0.637
		c-0.516,1.087-0.454,4.844-0.454,6.235V479.861z"/>
	<path fill="#0E1318" d="M632.718,468.964c0-2.237-0.122-2.815-1.482-2.937l-0.971-0.095c-0.241-0.18-0.21-0.636,0.032-0.754
		c1.635-0.148,3.695-0.244,6.51-0.244c1.904,0,3.723,0.153,5.085,0.851c1.301,0.633,2.3,1.845,2.3,3.783
		c0,2.18-1.269,3.3-3.086,4.15c0,0.301,0.242,0.39,0.576,0.451c1.63,0.306,4.056,1.816,4.056,5.059c0,3.509-2.605,5.873-8.053,5.873
		c-0.878,0-2.365-0.093-3.635-0.093c-1.332,0-2.363,0.061-3.482,0.093c-0.182-0.093-0.243-0.575-0.061-0.755l0.548-0.094
		c1.604-0.275,1.663-0.604,1.663-3.782V468.964z M635.198,472.988c0,0.851,0.034,0.911,1.577,0.851
		c3.09-0.12,4.752-1.031,4.752-3.877c0-2.969-2.21-4.086-4.511-4.086c-0.664,0-1.121,0.057-1.395,0.18
		c-0.303,0.093-0.424,0.242-0.424,0.79V472.988z M635.198,480.015c0,1.087,0.062,2.636,0.637,3.298
		c0.577,0.697,1.483,0.851,2.394,0.851c2.696,0,4.754-1.212,4.754-4.24c0-2.389-1.213-5.177-6.026-5.177
		c-1.637,0-1.758,0.18-1.758,0.789V480.015z"/>
	<path fill="#0E1318" d="M712.443,472.625c0-1.876-0.062-5.357-0.575-6.268c-0.21-0.363-0.761-0.572-1.517-0.634l-0.758-0.058
		c-0.181-0.215-0.119-0.608,0.065-0.731c1.148,0.062,2.267,0.096,3.449,0.096c1.272,0,2.091-0.034,3.178-0.096
		c0.247,0.153,0.214,0.545,0.062,0.731l-0.727,0.058c-0.757,0.062-1.333,0.332-1.516,0.727c-0.422,1-0.422,4.479-0.422,6.175v3.421
		c0,2.637-0.422,5.423-2.118,7.24c-1.302,1.42-3.541,2.207-5.781,2.207c-2.092,0-4.182-0.392-5.664-1.664
		c-1.603-1.333-2.361-3.541-2.361-7.146v-7.145c0-3.149-0.061-3.663-1.816-3.815l-0.758-0.058c-0.183-0.127-0.121-0.636,0.061-0.731
		c1.515,0.062,2.542,0.096,3.755,0.096c1.242,0,2.239-0.034,3.722-0.096c0.187,0.096,0.248,0.604,0.062,0.731l-0.726,0.058
		c-1.757,0.152-1.815,0.666-1.815,3.815v6.54c0,4.875,1.513,8.084,6.147,8.084c4.392,0,6.054-3.451,6.054-8.056V472.625z"/>
	<path fill="#0E1318" d="M767.855,469.568c0-3.179-0.06-3.661-1.971-3.815l-0.752-0.061c-0.18-0.12-0.12-0.666,0.062-0.756
		c1.691,0.061,2.724,0.09,3.936,0.09c1.18,0,2.208-0.029,3.722-0.09c0.183,0.09,0.242,0.636,0.061,0.756l-0.724,0.061
		c-1.791,0.154-1.853,0.637-1.853,3.815v10.534c0,1.909,0.096,2.695,0.639,3.271c0.335,0.334,0.911,0.697,3.3,0.697
		c2.574,0,3.211-0.12,3.693-0.393c0.607-0.365,1.395-1.452,1.999-2.998c0.18-0.15,0.757-0.028,0.757,0.181
		c0,0.334-0.847,3.426-1.274,4.241c-1.54-0.061-4.418-0.093-7.536-0.093h-2.783c-1.274,0-2.244,0.032-3.936,0.093
		c-0.182-0.093-0.241-0.575-0.062-0.759l0.907-0.09c1.756-0.183,1.815-0.604,1.815-3.782V469.568z"/>
	<line fill="#96212B" x1="274.748" y1="314.507" x2="274.748" y2="485.494"/>
	<rect x="273.577" y="314.507" fill="#96212B" width="2.341" height="170.987"/>
	<path fill="#96212B" d="M38.412,355.675c-5.191,0-8.786-3.515-8.94-8.749c-0.079-2.395,0.776-4.64,2.404-6.32
		c1.668-1.726,3.991-2.673,6.537-2.673c5.27,0,8.811,4.416,8.811,8.54C47.223,351.806,43.518,355.675,38.412,355.675"/>
	<path fill="#96212B" d="M180.167,356.275c-5.292,0-8.453-3.259-8.453-8.716c-0.245-2.296,0.574-4.814,2.204-6.62
		c1.612-1.777,3.83-2.755,6.249-2.755c5.384,0,8.716,4.73,8.716,9.111C188.883,352.501,185.217,356.275,180.167,356.275"/>
	<path fill="#96212B" d="M209.624,356.275c-5.22,0-8.689-3.402-8.836-8.665c0-4.647,3.305-9.425,8.836-9.425
		c5.214,0,8.331,4.632,8.331,9.111C217.955,352.585,214.528,356.275,209.624,356.275"/>
	<path fill="#96212B" d="M21.2,456.54c-1.05-0.525-1.656-1.474-1.857-2.691c-0.089-0.541-0.267-2.378,0.936-3.589l0.261-0.26
		l0.553-0.223l3.558-0.431c6.103-0.724,6.47-0.77,6.47-14.996v-47.049c0-14.03-0.242-14.596-6.413-15.123l-3.792-0.295l-0.242-0.18
		c-1.016-0.687-1.477-1.862-1.387-3.306c0.041-0.568,0.274-2.469,1.728-3.197l0.245-0.122l0.44-0.069
		c6.542,0.261,11.063,0.398,16.771,0.398c5.534,0,10.175-0.142,16.319-0.39l0.264-0.011l0.428,0.105
		c1.167,0.574,1.817,1.775,1.921,3.294c0.094,1.446-0.37,2.616-1.276,3.211l-0.23,0.155l-0.429,0.131l-3.499,0.275
		c-6.163,0.527-6.405,1.093-6.405,15.123v47.049c0,14.227,0.365,14.268,6.473,14.996l3.892,0.553l0.201,0.135
		c0.892,0.596,1.358,1.763,1.273,3.196c-0.038,0.57-0.268,2.479-1.73,3.22l-0.245,0.123l-0.442,0.071l-0.191-0.01
		c-6.495-0.251-11.019-0.392-16.323-0.392c-5.519,0-10.083,0.141-16.583,0.392l-0.26,0.012L21.2,456.54z M132.225,432.105
		c0-10.881-5.679-19.68-17.365-26.904l-10.577-6.617c-3.88-2.402-10.387-7.512-10.387-14.717c0-4.805,1.811-12.871,13.932-12.871
		c11.059,0,14.411,6.876,16.319,13.833l0.201,0.369l0.065,0.077c0.579,0.703,1.504,1.089,2.613,1.089c1.235,0,2.823-0.5,3.705-1.816
		l0.176-0.495v-0.318c0-5.943-1.313-13.603-2.491-16.756l-0.436-1.173h-1.254c-0.879,0-2.576-0.249-4.159-0.731
		c-3.197-0.859-8.229-1.777-12.761-1.777c-17.205,0-28.761,9.859-28.761,24.534c0,11.802,8.202,19.696,15.085,24.236l12.572,8.21
		c8.795,5.661,10.009,11.505,10.009,16.977c0,6.671-4.553,13.399-14.72,13.399c-12.896,0-18.536-10.006-21.06-18.553l-0.167-0.337
		c-0.55-0.819-1.5-1.27-2.678-1.27c-1.065,0-2.611,0.425-3.613,1.829l-0.202,0.549l0.015,0.367
		c0.268,6.194,1.979,15.972,3.877,19.461l0.321,0.366l0.265,0.156c2.659,1.543,10.074,5.131,21.527,5.131
		C120.189,458.354,132.225,447.806,132.225,432.105 M219.356,448.213c6.551-7.015,9.736-17.739,9.736-32.783v-14.837
		c0-6.031,0-22.057,1.661-25.979c0.372-0.816,2.18-1.755,4.904-1.974l3.998-0.334l0.534-0.65c0.773-0.929,1.126-2.293,0.923-3.566
		c-0.183-1.124-0.772-2.045-1.893-2.747l-0.599-0.168l-0.353,0.018c-5.035,0.296-8.491,0.395-13.688,0.395
		c-5.169,0-10.029-0.126-15.197-0.405l-0.604,0.153l-0.285,0.187c-0.841,0.564-1.426,1.554-1.605,2.74
		c-0.171,1.295,0.162,2.537,0.903,3.389l0.538,0.655l4.123,0.334c3.068,0.245,4.593,1.065,4.988,1.74
		c0.669,1.175,2.228,6.079,2.228,26.213v15.101c0,15.023-4.209,32.94-24.26,32.94c-16.823,0-24.659-10.504-24.659-33.06v-28.385
		c0-14.034,0.458-14.07,6.036-14.549l3.409-0.287l0.49-0.165l0.23-0.156c0.939-0.645,1.427-1.847,1.337-3.299
		c-0.036-0.578-0.27-2.527-2.055-3.442l-0.493-0.109l-0.278,0.01c-6.701,0.293-10.907,0.395-16.075,0.395
		c-4.894,0-9.286-0.105-16.459-0.405l-0.497,0.099l-0.249,0.123c-1.569,0.795-1.806,2.751-1.844,3.329
		c-0.087,1.471,0.415,2.678,1.569,3.441l0.233,0.158l3.805,0.308c5.57,0.479,6.026,0.515,6.026,14.549v31.018
		c0,15.989,3.486,26.333,10.955,32.534c5.979,5.119,14.693,7.711,25.894,7.711C203.387,458.452,213.57,454.528,219.356,448.213"/>
</g>
</svg>
